HIERARCHY
ROOT joint_0
{
	OFFSET 0.000000 0.000000 0.000000
	CHANNELS 6 Xposition Yposition Zposition Zrotation Yrotation Xrotation 
	JOINT joint_1
	{
		OFFSET 0.000000 0.000000 0.000000
		CHANNELS 3 Zrotation Yrotation Xrotation
		JOINT joint_2
		{
			OFFSET 3.811170 -8.520760 0.839290
			CHANNELS 3 Zrotation Yrotation Xrotation
			JOINT joint_3
			{
				OFFSET 2.562200 -7.039590 0.000000
				CHANNELS 3 Zrotation Yrotation Xrotation
				JOINT joint_4
				{
					OFFSET 0.157640 -0.433110 2.322550
					CHANNELS 3 Zrotation Yrotation Xrotation
					End Site
					{
						OFFSET 0.000000 0.000000 0.000000
					}
				}
			}
		}
	}
	JOINT joint_5
	{
		OFFSET 0.000000 0.000000 0.000000
		CHANNELS 3 Zrotation Yrotation Xrotation
		JOINT joint_6
		{
			OFFSET -3.848050 -8.780180 0.839290
			CHANNELS 3 Zrotation Yrotation Xrotation
			JOINT joint_7
			{
				OFFSET -2.568260 -7.056230 0.000000
				CHANNELS 3 Zrotation Yrotation Xrotation
				JOINT joint_8
				{
					OFFSET -0.164730 -0.452590 2.363150
					CHANNELS 3 Zrotation Yrotation Xrotation
					End Site
					{
						OFFSET 0.000000 0.000000 0.000000
					}
				}
			}
		}
	}
	JOINT joint_9
	{
		OFFSET 0.000000 0.000000 0.000000
		CHANNELS 3 Zrotation Yrotation Xrotation
		JOINT joint_10
		{
			OFFSET 0.084990 4.084440 -0.236130
			CHANNELS 3 Zrotation Yrotation Xrotation
			JOINT joint_11
			{
				OFFSET 0.000000 0.000000 0.000000
				CHANNELS 3 Zrotation Yrotation Xrotation
				JOINT joint_12
				{
					OFFSET 0.049900 3.507600 0.048050
					CHANNELS 3 Zrotation Yrotation Xrotation
					End Site
					{
						OFFSET 0.000000 0.000000 0.000000
					}
				}
			}
			JOINT joint_13
			{
				OFFSET 0.000001 0.000000 0.000000
				CHANNELS 3 Zrotation Yrotation Xrotation
				JOINT joint_14
				{
					OFFSET 4.050000 1.200890 -0.311210
					CHANNELS 3 Zrotation Yrotation Xrotation
					JOINT joint_15
					{
						OFFSET 3.483560 -0.000000 -0.000000
						CHANNELS 3 Zrotation Yrotation Xrotation
						JOINT joint_16
						{
							OFFSET 0.000000 0.000000 0.000000
							CHANNELS 3 Zrotation Yrotation Xrotation
							End Site
							{
								OFFSET 0.000000 0.000000 0.000000
							}
						}
					}
				}
			}
			JOINT joint_17
			{
				OFFSET 0.000000 0.000000 0.000000
				CHANNELS 3 Zrotation Yrotation Xrotation
				JOINT joint_18
				{
					OFFSET -3.978500 1.374050 -0.404650
					CHANNELS 3 Zrotation Yrotation Xrotation
					JOINT joint_19
					{
						OFFSET -3.444170 -0.000000 -0.000000
						CHANNELS 3 Zrotation Yrotation Xrotation
						JOINT joint_20
						{
							OFFSET 0.000000 0.000000 0.000000
							CHANNELS 3 Zrotation Yrotation Xrotation
							End Site
							{
								OFFSET 0.000000 0.000000 0.000000
							}
						}
					}
				}
			}
		}
	}
}
MOTION
Frames: 7
Frame Time: 0.041667
4.077666 15.525955 -1.199826 -4.261501 -24.318563 -2.335410 -2.350501 1.151657 -28.816461 3.779169 16.361255 46.010147 -4.830801 6.776753 -16.869837 -0.627053 -1.644553 -2.374526 9.075264 -24.132837 3.862416 -4.399957 -9.074325 19.725236 -0.305275 12.869053 -20.853706 -0.734002 -1.939052 0.065842 -1.456612 -5.021576 4.917172 -2.510728 -3.433653 -10.710319 -0.551532 -0.905049 -3.119685 -6.210335 -1.106469 4.117290 -35.038886 -37.620700 11.633183 124.196318 -50.957666 -70.011169 -3.857429 4.936067 -2.140757 -7.987252 -0.766798 -0.721027 25.096125 52.797708 20.754871 -51.116883 31.397541 -4.079292 -0.240253 -6.867067 -2.301560 6.307213 -0.615957 -0.824914 
4.056197 15.496872 -1.153813 -4.356436 -23.757962 -2.296846 -2.540091 1.882257 -28.992312 3.810587 16.410005 45.802651 -4.762981 6.979088 -17.046824 -0.604598 -1.582444 -2.283481 9.003292 -24.574243 4.661278 -4.324792 -9.026672 19.572090 -0.362787 12.969946 -21.013343 -0.710352 -1.918454 0.215863 -1.334170 -4.898911 4.976167 -2.443209 -3.323691 -10.475530 -0.491117 -0.852789 -3.116179 -6.041708 -1.058607 3.914429 -35.233441 -37.475827 11.072270 121.065004 -51.691921 -67.686836 -3.703658 4.886349 -2.092367 -7.960051 -0.738826 -0.697065 24.574499 53.371451 20.760848 -49.998201 30.822358 -3.586165 -0.199037 -6.735058 -2.333259 6.338281 -0.591402 -0.794971 
4.034728 15.467790 -1.107800 -4.454462 -23.175540 -2.257027 -2.762480 2.642590 -29.163968 3.853908 16.468504 45.641914 -4.688836 7.208187 -17.241730 -0.582215 -1.514902 -2.177902 8.931680 -25.018982 5.488812 -4.252267 -8.983198 19.428044 -0.425537 13.076109 -21.170855 -0.686543 -1.897872 0.366274 -1.209411 -4.777747 5.030672 -2.364889 -3.212242 -10.236161 -0.434658 -0.795053 -3.115272 -5.872046 -1.008287 3.705375 -35.476352 -37.337882 10.517844 117.417215 -52.421951 -64.978680 -3.539695 4.822775 -2.036645 -7.932698 -0.710751 -0.672857 24.046396 53.946683 20.764079 -48.835075 30.203155 -3.094435 -0.161832 -6.593699 -2.365274 6.369462 -0.566721 -0.764869 
4.013259 15.438707 -1.061787 -4.555701 -22.565105 -2.216997 -3.014227 3.428228 -29.330648 3.911708 16.536570 45.530786 -4.609169 7.462511 -17.457867 -0.559888 -1.443323 -2.061227 8.861055 -25.461402 6.348380 -4.184089 -8.943213 19.292919 -0.492161 13.186972 -21.326657 -0.662678 -1.877466 0.516616 -1.080373 -4.655241 5.079069 -2.273032 -3.096459 -9.991760 -0.381538 -0.731085 -3.115182 -5.701941 -0.955519 3.491793 -35.771653 -37.209963 9.979694 113.329524 -53.117508 -61.983177 -3.365491 4.744694 -1.968899 -7.905307 -0.682670 -0.648508 23.513901 54.523465 20.764500 -47.616957 29.543462 -2.605402 -0.128571 -6.441125 -2.396807 6.400569 -0.542040 -0.734726 
3.992513 15.406869 -1.012234 -4.662058 -21.919682 -2.178503 -3.293792 4.232099 -29.486842 3.984070 16.617281 45.470508 -4.524702 7.741885 -17.697921 -0.537502 -1.367958 -1.934517 8.795239 -25.897742 7.240428 -4.117991 -8.908525 19.165285 -0.564235 13.299032 -21.486138 -0.638658 -1.856226 0.665645 -0.943026 -4.527088 5.120699 -2.164349 -2.973100 -9.741586 -0.331119 -0.662428 -3.117289 -5.532052 -0.899401 3.277859 -36.124695 -37.096716 9.475677 108.947982 -53.730833 -58.825031 -3.182696 4.651490 -1.893034 -7.877694 -0.654464 -0.623986 22.981844 55.103635 20.768042 -46.354373 28.846776 -2.128586 -0.096804 -6.280214 -2.426203 6.431592 -0.517314 -0.704470 
3.972517 15.372168 -0.959004 -4.775299 -21.239232 -2.140504 -3.599680 5.045992 -29.631518 4.072636 16.709364 45.463940 -4.434369 8.045686 -17.963603 -0.515031 -1.288475 -1.796900 8.731289 -26.324501 8.166782 -4.052945 -8.877231 19.044239 -0.639542 13.411228 -21.647498 -0.614454 -1.833824 0.812540 -0.796980 -4.391675 5.155544 -2.039153 -2.844211 -9.485897 -0.283545 -0.587762 -3.121493 -5.362096 -0.839367 3.064057 -36.536368 -36.996694 9.011410 104.279503 -54.239370 -55.509232 -2.990189 4.543544 -1.808376 -7.849853 -0.626125 -0.599246 22.450146 55.686362 20.772905 -45.049575 28.110897 -1.664447 -0.067152 -6.110919 -2.451426 6.462529 -0.492543 -0.674100 
3.952520 15.337467 -0.905774 -4.891702 -20.526315 -2.102749 -3.928760 5.861785 -29.762913 4.177821 16.811191 45.510963 -4.338302 8.371627 -18.258463 -0.492467 -1.205473 -1.649897 8.669541 -26.737886 9.128659 -3.989582 -8.847749 18.929227 -0.717787 13.521757 -21.808241 -0.590115 -1.810086 0.956426 -0.642996 -4.248640 5.183692 -1.897845 -2.708141 -9.224688 -0.238559 -0.507585 -3.130114 -5.192421 -0.775906 2.851618 -37.006855 -36.905090 8.591093 99.347248 -54.622461 -52.057433 -2.787135 4.421224 -1.712532 -7.821845 -0.597736 -0.574303 21.918699 56.267318 20.778954 -43.707789 27.336511 -1.218079 -0.039458 -5.932581 -2.470473 6.493333 -0.467773 -0.643682 
